<svg xmlns="http://www.w3.org/2000/svg" width="119.76" height="65.483" viewBox="0 0 119.76 65.483">
  <g id="Group_4356" data-name="Group 4356" transform="translate(-39.7 -68.057)">
    <path id="Path_3182" data-name="Path 3182" d="M158.758,154.41a.983.983,0,0,1,.913-.96c.667,0,.815.591.815.96h-1.728m2.641.689a1.772,1.772,0,0,0,.024-.418,1.717,1.717,0,0,0-1.7-1.92,1.955,1.955,0,0,0-1.925,2.117,1.877,1.877,0,0,0,2.048,1.993,3.348,3.348,0,0,0,1.357-.246l-.148-.689a2.716,2.716,0,0,1-1.086.172,1.066,1.066,0,0,1-1.209-1.009Zm-7.971,1.7h1.012v-2.313a1.213,1.213,0,0,1,.024-.32.86.86,0,0,1,.79-.591c.542,0,.74.443.74,1.009V156.8h.987v-2.338c0-1.255-.691-1.7-1.382-1.7a1.4,1.4,0,0,0-1.259.689h-.025l-.049-.591H153.4c.025.344.025.713.025,1.181Zm-1.58-5.586a.531.531,0,0,0-.542.542.5.5,0,0,0,.542.541.524.524,0,0,0,.568-.541A.538.538,0,0,0,151.848,151.211Zm.519,1.649h-1.012V156.8h1.012Zm-1.9,3.077a1.913,1.913,0,0,1-.765.147,1.269,1.269,0,0,1,0-2.535,1.68,1.68,0,0,1,.741.148l.172-.739a2.55,2.55,0,0,0-.963-.2,2.031,2.031,0,0,0-2.171,2.117,1.882,1.882,0,0,0,2.023,1.993,2.789,2.789,0,0,0,1.111-.2Zm-4.318-4.725a.553.553,0,0,0-.568.542.568.568,0,0,0,1.135,0A.553.553,0,0,0,146.148,151.211Zm.494,1.649h-.987V156.8h.987Zm-3.061,2.215a1.022,1.022,0,0,1-.024.3.888.888,0,0,1-.864.713c-.642,0-.987-.541-.987-1.255,0-.738.346-1.3.987-1.3a.857.857,0,0,1,.864.713.931.931,0,0,1,.024.271Zm0-4.011v2.214h-.024a1.285,1.285,0,0,0-1.086-.517,1.885,1.885,0,0,0-1.777,2.117,1.786,1.786,0,0,0,1.678,1.993,1.37,1.37,0,0,0,1.283-.713h.025l.05.639h.888c-.024-.27-.05-.713-.05-1.107v-4.626Zm-6.1,3.347a.964.964,0,0,1,.913-.96.859.859,0,0,1,.815.96Zm2.616.689a1.439,1.439,0,0,0,.05-.418,1.717,1.717,0,0,0-1.7-1.92,1.955,1.955,0,0,0-1.925,2.117,1.858,1.858,0,0,0,2.023,1.993,3.57,3.57,0,0,0,1.382-.246l-.148-.689a2.8,2.8,0,0,1-1.086.172c-.642,0-1.184-.3-1.209-1.009Zm-5.108,1.7h.963l-.321-5.438h-1.283l-.765,2.166c-.2.639-.4,1.3-.543,1.895h-.024c-.124-.591-.3-1.255-.494-1.895l-.716-2.166H130.5l-.37,5.438h.938l.124-2.19c.05-.739.074-1.6.1-2.314h.024c.148.665.32,1.4.543,2.117l.716,2.314h.79l.79-2.363c.247-.689.469-1.4.642-2.067h.024c0,.739.025,1.575.074,2.289Zm-8.687,0h1.012v-5.734h-1.012Zm-2.024-1.378a.613.613,0,0,1-.024.2.764.764,0,0,1-.765.542.518.518,0,0,1-.568-.566c0-.591.667-.739,1.357-.713Zm1.037,1.378a5.469,5.469,0,0,1-.05-.959v-1.4a1.486,1.486,0,0,0-1.629-1.673,2.975,2.975,0,0,0-1.431.344l.2.665a2.069,2.069,0,0,1,1.061-.3c.691,0,.814.419.814.689v.05c-1.481,0-2.344.492-2.344,1.5a1.16,1.16,0,0,0,1.234,1.157,1.477,1.477,0,0,0,1.16-.517h.024l.074.443Zm-7.749,0h1.012v-2.313a.633.633,0,0,1,.049-.32.828.828,0,0,1,.765-.591c.543,0,.765.443.765,1.009V156.8h.987v-2.338c0-1.255-.716-1.7-1.407-1.7a1.432,1.432,0,0,0-1.259.689h-.024l-.05-.591h-.864c.024.344.024.713.024,1.181Zm-2.764-3.3c.691,0,.963.689.963,1.3,0,.787-.4,1.354-.963,1.354-.592,0-.987-.566-.987-1.329,0-.665.3-1.328.987-1.328m.025-.739a1.947,1.947,0,0,0-2.024,2.092,1.9,1.9,0,0,0,1.974,2.018,1.955,1.955,0,0,0,2.024-2.092A1.9,1.9,0,0,0,114.833,152.761Zm-3.356-1.551a.532.532,0,0,0-.543.542.518.518,0,0,0,.543.541.524.524,0,0,0,.568-.541.538.538,0,0,0-.568-.542m.518,1.649h-1.012V156.8h1.012Zm-3.677-.886v.886h-.568v.739h.568v1.846a1.653,1.653,0,0,0,.3,1.107,1.2,1.2,0,0,0,.864.32,2.34,2.34,0,0,0,.716-.1v-.763a1.523,1.523,0,0,1-.4.05c-.394,0-.518-.246-.518-.713V153.6h.963v-.739h-.963v-1.132Zm-2.147,3.445a.613.613,0,0,1-.024.2.819.819,0,0,1-.79.542.518.518,0,0,1-.568-.566c0-.591.667-.739,1.382-.713Zm1.037,1.378a5.207,5.207,0,0,1-.074-.959v-1.4a1.486,1.486,0,0,0-1.629-1.673,2.866,2.866,0,0,0-1.407.344l.2.665a1.981,1.981,0,0,1,1.037-.3c.716,0,.815.419.815.689v.05c-1.456,0-2.345.492-2.345,1.5a1.161,1.161,0,0,0,1.234,1.157,1.533,1.533,0,0,0,1.185-.517h.024l.05.443Zm-6.786-2.264a.872.872,0,0,1,.049-.246.918.918,0,0,1,.889-.739c.642,0,.987.566.987,1.255,0,.787-.37,1.3-1.012,1.3a.9.9,0,0,1-.864-.689,1.054,1.054,0,0,1-.049-.271Zm-.987,3.864h.987v-2.043h.024a1.277,1.277,0,0,0,1.111.517,1.878,1.878,0,0,0,1.8-2.092,1.81,1.81,0,0,0-1.678-2.018,1.5,1.5,0,0,0-1.332.713h-.025l-.05-.615h-.864c0,.369.025.787.025,1.3Zm-.987-5.537H97.434v2.362a1.255,1.255,0,0,1-.049.32.854.854,0,0,1-.765.541c-.519,0-.741-.443-.741-1.083V152.86h-.987v2.314c0,1.28.667,1.7,1.382,1.7a1.416,1.416,0,0,0,1.259-.689h.024l.024.615h.889c-.024-.32-.024-.713-.024-1.181Zm-4.418,3.077a2.154,2.154,0,0,1-.79.147,1.27,1.27,0,0,1,0-2.535A1.807,1.807,0,0,1,94,153.7l.172-.739a2.549,2.549,0,0,0-.962-.2,2.051,2.051,0,0,0-2.2,2.117,1.9,1.9,0,0,0,2.048,1.993,2.882,2.882,0,0,0,1.11-.2Zm-3.553,0a2.154,2.154,0,0,1-.79.147,1.269,1.269,0,0,1,0-2.535,1.8,1.8,0,0,1,.764.148l.173-.739a2.55,2.55,0,0,0-.963-.2,2.051,2.051,0,0,0-2.2,2.117,1.882,1.882,0,0,0,2.024,1.993,2.789,2.789,0,0,0,1.111-.2Zm-6.145-3.864c1.012,0,1.505.96,1.505,1.993,0,1.132-.543,2.018-1.505,2.018-.938,0-1.505-.886-1.505-1.993S83.344,152.072,84.331,152.072Zm.024-.812a2.615,2.615,0,0,0-2.591,2.855,2.516,2.516,0,0,0,2.517,2.756,2.568,2.568,0,0,0,2.616-2.855A2.519,2.519,0,0,0,84.355,151.26ZM78.7,156.8v-3.2h.864v-.739H78.7v-.2c0-.492.148-.91.642-.91a1.856,1.856,0,0,1,.445.073l.049-.762a2,2,0,0,0-.616-.1,1.563,1.563,0,0,0-1.037.394,1.762,1.762,0,0,0-.469,1.328v.172h-.542v.739h.542v3.2Zm-3.874-3.3c.691,0,.963.689.963,1.3,0,.787-.4,1.354-.963,1.354-.616,0-.987-.566-.987-1.329,0-.665.3-1.328.987-1.328m.025-.739a1.947,1.947,0,0,0-2.024,2.092,1.889,1.889,0,0,0,1.974,2.018,1.955,1.955,0,0,0,2.024-2.092A1.9,1.9,0,0,0,74.855,152.761Zm-8.021.1,1.432,3.618a.306.306,0,0,1,.049.172.77.77,0,0,1-.049.2,2.272,2.272,0,0,1-.543.615,2.039,2.039,0,0,1-.593.271l.223.837a1.859,1.859,0,0,0,1.036-.493,5.985,5.985,0,0,0,1.382-2.534l.987-2.683H69.7l-.617,2.092c-.074.271-.148.566-.222.788h-.024c-.05-.222-.124-.542-.2-.763l-.716-2.117Zm-2.295-.886v.886h-.568v.739h.568v1.846a1.653,1.653,0,0,0,.3,1.107,1.238,1.238,0,0,0,.864.32,2.211,2.211,0,0,0,.716-.1v-.763a1.521,1.521,0,0,1-.394.05c-.371,0-.519-.246-.519-.713V153.6h.963v-.739H65.5v-1.132ZM62.22,156.8h.987v-5.734H62.22Zm-1.086-3.937h-.987v2.362a.686.686,0,0,1-.074.32.818.818,0,0,1-.741.541c-.543,0-.74-.443-.74-1.083V152.86H57.58v2.314c0,1.28.667,1.7,1.382,1.7a1.384,1.384,0,0,0,1.259-.689h.024l.05.615h.864c0-.32-.024-.713-.024-1.181Zm-4.368,3.077a2.05,2.05,0,0,1-.79.147,1.27,1.27,0,0,1,0-2.535,1.8,1.8,0,0,1,.764.148l.173-.739a2.553,2.553,0,0,0-.963-.2,2.051,2.051,0,0,0-2.2,2.117,1.9,1.9,0,0,0,2.048,1.993,2.886,2.886,0,0,0,1.111-.2Zm-4.738-.517a.6.6,0,0,1-.025.2.818.818,0,0,1-.79.542.518.518,0,0,1-.568-.566c0-.591.691-.739,1.382-.713Zm1.036,1.378a5.269,5.269,0,0,1-.074-.959v-1.4a1.468,1.468,0,0,0-1.6-1.673,2.9,2.9,0,0,0-1.432.344l.2.665a2,2,0,0,1,1.061-.3c.691,0,.79.419.79.689v.05c-1.456,0-2.344.492-2.344,1.5a1.16,1.16,0,0,0,1.234,1.157,1.53,1.53,0,0,0,1.184-.517H52.1l.049.443Zm-6.86,0h.987v-2.313h2.024v-.813H47.191v-1.5h2.172v-.812H46.2Z" transform="translate(-1.964 -25.029)" fill="#fff"/>
    <g id="Group_4355" data-name="Group 4355" transform="translate(39.7 68.057)">
      <path id="Path_3183" data-name="Path 3183" d="M94.135,88.749a19.256,19.256,0,1,0,19.323,19.267A19.288,19.288,0,0,0,94.135,88.749Zm-1.407,4.676h2.591a.323.323,0,0,1,.321.3l-.05,1.55a.362.362,0,0,0-.173-.025,10.662,10.662,0,0,0-2.936.025l-.05-1.526A.322.322,0,0,1,92.728,93.425Zm-5.182,5.414c1.407-2.24,4.269-3.027,6.515-3.027a11.3,11.3,0,0,1,1.283.074,14.192,14.192,0,0,1,3.258.91,3.744,3.744,0,0,1,.542.271,1.734,1.734,0,0,1,.938,1.058.8.8,0,0,1-.015.424c.292.1.572.191.583.191.272-.024.642-.074.642-.074l-.469.222.2.467-.42-.443-.606-.209c-.013.02-.021.042-.036.061l-.025.025a1.592,1.592,0,0,1-.246.32c-.074.049-.173.1-.247.147a1.332,1.332,0,0,1-.271.124,2.532,2.532,0,0,1-.617.147,2.282,2.282,0,0,1-.42.024,14.055,14.055,0,0,1-2.048-.3,11.235,11.235,0,0,0-2.394-.32,5,5,0,0,0-1.061.1c-.124.024-.246.05-.346.074a7.124,7.124,0,0,0-.691.2,2.483,2.483,0,0,0-.938.613,1.273,1.273,0,0,0-.272,1.058v.05a2.077,2.077,0,0,0,1.308,1.033,1.2,1.2,0,0,0,.32.1l.074,2.633a6.8,6.8,0,0,1-3.405-.91A3.732,3.732,0,0,1,87.546,98.839Zm7.921,3.665c-.024.664-.05,1.8-.074,2.313l-.024,1.8H92.8l-.049-1.8-.1-2.559h.025L92.605,99.7c.049,0,.1-.024.148-.024a5.442,5.442,0,0,1,.938-.1,10.6,10.6,0,0,1,1.8.221l-.049,2.51ZM84.832,119.681a7.155,7.155,0,0,0-.741-.271c-.172-.073-.32-.147-.494-.221a2.765,2.765,0,0,1-1.826-2.067c-.148-.713-.32-1.428-.468-2.117-.1-.394-.173-.763-.272-1.132a10.1,10.1,0,0,1-.222-2.486,1.207,1.207,0,0,1,.024-.3c-.024-.713.05-1.476.024-2.214a.746.746,0,0,0,.025-.246,2.509,2.509,0,0,1,.172-.713.3.3,0,0,1,.321-.148.5.5,0,0,1,.346.2c.049.074.1.124.148.2.074.124.172.271.222.369.024.074.074.148.1.221a1.99,1.99,0,0,1,.1.443c.074.566.123,1.132.172,1.747.024.221.05.443.074.665a.893.893,0,0,0-1.086.344,1.186,1.186,0,0,0-.025,1.329,5.443,5.443,0,0,0,.765,1.009l.173.172c.272.3.568.566.864.836.074.05.124.124.2.172.444.418.888.812,1.333,1.206.271.222.542.468.814.714l.247.221.148-.148-.025-.024c.025,0,.025-.024.05-.024a1.185,1.185,0,0,0-.37-.492c-.42-.468-.889-.935-1.333-1.378a1.5,1.5,0,0,1-.2-.2c-.543-.542-1.185-1.009-1.727-1.575l-.124-.124c-.1-.147-.222-.32-.321-.467a1.159,1.159,0,0,1-.123-.246.826.826,0,0,1,.049-.763.673.673,0,0,1,.148-.123.625.625,0,0,1,.173-.1,3.175,3.175,0,0,1,.469-.024,2.861,2.861,0,0,1,.616.3.443.443,0,0,1,.222.147l.223.148a1.208,1.208,0,0,1,.2.172,6.7,6.7,0,0,1,.963,1.107c.05.074.124.123.172.2a5.245,5.245,0,0,0,.469.566,1.61,1.61,0,0,1,.2.221,7.966,7.966,0,0,0,2.172,1.452,1.329,1.329,0,0,1,.271.123,5.251,5.251,0,0,1,2.147,1.55,6.683,6.683,0,0,1,1.086,2.436,6.2,6.2,0,0,0,.3.886,3.485,3.485,0,0,1,.148.517A45.954,45.954,0,0,1,84.832,119.681Zm10.315-3.692a.285.285,0,0,1-.3.3H93.37a.285.285,0,0,1-.3-.3l-.1-3.051v-.344l-.1-3.519a3.723,3.723,0,0,0,.519.049c.42.05.864.1,1.259.124.148,0,.3.024.42.024.074,0,.148.024.222.024Zm-.025-7.382a2.418,2.418,0,0,1-.42-.024,10.933,10.933,0,0,1-1.234-.1,11.412,11.412,0,0,0-1.6-.124,4.626,4.626,0,0,0-1.037.1,1.878,1.878,0,0,0-.494.147l-.123.049a2.728,2.728,0,0,0-1.135.763,1.779,1.779,0,0,0-.272.468,1.963,1.963,0,0,0,.394,1.993,1.609,1.609,0,0,0,.445.369,4.342,4.342,0,0,0,2.073.418c.2,0,.4-.024.592-.024v.148c-.1,0-.2.024-.3.024-.3.024-.592.049-.839.049a5.708,5.708,0,0,1-1.653-.221c-.172-.049-.321-.1-.469-.147-.148-.074-.271-.172-.394-.246a2.433,2.433,0,0,1-.839-2.214,1.863,1.863,0,0,1,.1-.394,4.147,4.147,0,0,1,3.233-2.214c.148-.024.3-.05.469-.074.79-.074,1.6-.1,2.394-.1H94.9c.1,0,.2.024.321.024.764,0,2.023.05,2.542-.517a.926.926,0,0,0,.222-.713c-.124-.96-1.185-1.107-1.925-1.181l.049-2.289c.346.074.667.148.987.222l.445.147a3.824,3.824,0,0,1,.468.2,4.326,4.326,0,0,1,.444.271c1.086.665,1.974,1.944,1.407,3.15l-.024.024a1.85,1.85,0,0,1-.2.443,3.611,3.611,0,0,1-2.936,1.624,1.966,1.966,0,0,1-.543,0,5.631,5.631,0,0,1-.642-.024A2.146,2.146,0,0,1,95.122,108.607ZM96.6,113.9a1.154,1.154,0,0,0-.148-.369,1,1,0,0,0-.3-.344,1.087,1.087,0,0,0-.272-.2l-.024-.246a1.446,1.446,0,0,1,.666.542,1.043,1.043,0,0,1,.124.172c.05.1.074.2.124.3l.074.3a2.33,2.33,0,0,1-.543,1.871,3,3,0,0,0,.4-1.7v-.024A.835.835,0,0,0,96.6,113.9Zm10.858-2.51a10.169,10.169,0,0,1-.222,2.486c-.1.369-.173.738-.272,1.132-.148.689-.321,1.4-.444,2.117a2.843,2.843,0,0,1-1.851,2.067c-.148.074-.32.148-.494.221a5.3,5.3,0,0,0-.716.271,47.275,47.275,0,0,1-7.008,2.067,3.574,3.574,0,0,1,.148-.517c.148-.369.222-.591.321-.886a6.705,6.705,0,0,1,1.061-2.436,5.249,5.249,0,0,1,2.147-1.55,2.472,2.472,0,0,1,.272-.123,7.619,7.619,0,0,0,2.172-1.452c.074-.074.123-.147.2-.221.172-.172.32-.369.494-.566.049-.074.1-.123.148-.2a8.281,8.281,0,0,1,.987-1.107,1.086,1.086,0,0,1,.172-.172l.222-.148a.585.585,0,0,1,.222-.147,2.575,2.575,0,0,1,.642-.3,2.867,2.867,0,0,1,.445.024.632.632,0,0,1,.172.1.642.642,0,0,1,.148.123.762.762,0,0,1,.05.763,1.131,1.131,0,0,1-.124.246,5.309,5.309,0,0,1-.32.467c-.025.05-.074.074-.124.124-.543.566-1.185,1.033-1.7,1.575a1.5,1.5,0,0,0-.2.2c-.469.443-.938.91-1.357,1.378a.953.953,0,0,0-.346.492.024.024,0,0,0,.024.024l-.024.024.172.148.222-.221c.272-.246.543-.492.815-.714.444-.394.889-.787,1.333-1.206.074-.049.124-.123.2-.172.3-.27.592-.541.864-.836l.172-.172a4.511,4.511,0,0,0,.765-1.009,1.185,1.185,0,0,0,0-1.329.935.935,0,0,0-1.111-.344c.025-.222.05-.443.075-.665.049-.615.1-1.181.172-1.747a1.89,1.89,0,0,1,.124-.443l.074-.221c.074-.1.148-.246.246-.369a.889.889,0,0,1,.124-.2.555.555,0,0,1,.346-.2.3.3,0,0,1,.32.148,2.511,2.511,0,0,1,.173.713.931.931,0,0,1,.024.246c0,.738.074,1.5.05,2.214Z" transform="translate(-50.308 -74.304)" fill="#fff"/>
      <path id="Path_3184" data-name="Path 3184" d="M108.418,101.509a.247.247,0,0,1-.246.246.265.265,0,0,1-.247-.246.247.247,0,0,1,.247-.246A.233.233,0,0,1,108.418,101.509Z" transform="translate(-60.296 -78.082)" fill="#fff"/>
      <path id="Path_3185" data-name="Path 3185" d="M44.266,119.34V92.518H39.7V84.569h4.566V83.216c0-4.207,1.283-8.835,4.417-11.665a14.173,14.173,0,0,1,9.624-3.494,20.987,20.987,0,0,1,5.775.713l-.42,8.318a12.338,12.338,0,0,0-3.5-.492c-3.554,0-5.059,2.781-5.059,6.177v1.8h6.984v7.949h-6.91V119.34Z" transform="translate(-39.7 -68.057)" fill="#fff"/>
      <path id="Path_3186" data-name="Path 3186" d="M135.486,102.441c0-4.329-.124-8.021-.272-11.072h9.131l.494,4.676h.222A12.1,12.1,0,0,1,155.6,90.582c4.516,0,8.069,2.264,9.575,5.907h.148a15.09,15.09,0,0,1,4.491-4.208,12.592,12.592,0,0,1,6.614-1.7c6.712,0,11.771,4.676,11.771,15.059v20.5H177.634V107.216c0-5.045-1.629-7.971-5.133-7.971a5.318,5.318,0,0,0-4.984,3.763,9.609,9.609,0,0,0-.42,2.781V126.14H156.535V106.65c0-4.405-1.579-7.4-4.984-7.4a5.508,5.508,0,0,0-5.059,3.911,6.934,6.934,0,0,0-.444,2.707V126.14H135.486Z" transform="translate(-68.535 -74.857)" fill="#fff"/>
    </g>
  </g>
</svg>
