<svg xmlns="http://www.w3.org/2000/svg" width="270" height="78.247" viewBox="0 0 270 78.247">
  <g id="Group_4386" data-name="Group 4386" transform="translate(-117.239 -213.388)">
    <g id="Group_2242" data-name="Group 2242" transform="translate(117.239 213.388)">
      <path id="Path_3112" data-name="Path 3112" d="M145.482,223.865c-2.049-3.293-5.707-4.756-9.439-4.756-5.415,0-11.049,2.561-11.049,8.707,0,4.756,2.634,6.878,10.9,9.512,8.048,2.561,15.511,5.2,15.511,15.366,0,10.317-8.853,15.146-18.219,15.146-6,0-12.439-1.976-15.951-7.17l5.268-4.317c2.2,3.8,6.585,5.78,11.048,5.78,5.268,0,11.268-3.073,11.268-9,0-6.366-4.317-7.463-13.536-10.536-7.317-2.415-12.878-5.634-12.878-14.268,0-9.951,8.561-14.927,17.634-14.927,5.78,0,10.683,1.61,14.487,6.073Z" transform="translate(-117.239 -213.395)" fill="#1c3a6b"/>
      <path id="Path_3113" data-name="Path 3113" d="M205.019,216.371h32.56v5.707H211.165v16.243h24.658v5.707H211.165v18.438H238.9v5.707H205.019Z" transform="translate(-166.092 -215.048)" fill="#1c3a6b"/>
      <path id="Path_3114" data-name="Path 3114" d="M340.593,266.521H310.52a26.56,26.56,0,1,1,26.634-26.56c0,8.78-4.829,17.853-12.585,21.146v.146h10.515C341.144,261.253,340.593,266.521,340.593,266.521Zm-30.073-5.707c11.415,0,20.049-9.146,20.049-20.853,0-11.561-8.414-20.853-20.049-20.853s-20.048,9.292-20.048,20.853C290.472,251.668,299.106,260.814,310.52,260.814Z" transform="translate(-209.985 -213.395)" fill="#1c3a6b"/>
      <path id="Path_3115" data-name="Path 3115" d="M441.6,213.394c16.17-.293,27.584,10.537,27.584,27.146,0,16.17-11.414,27-27.584,27.292-15.951,0-27.365-10.829-27.365-27C414.237,224.223,425.652,213.394,441.6,213.394Zm.073,46.1c10.756,0,17.853-8.2,17.853-19.244,0-10.317-7.1-18.512-17.853-18.512-10.682,0-17.779,8.2-17.779,18.512C423.9,251.3,430.993,259.49,441.675,259.49Z" transform="translate(-282.529 -213.388)" fill="#0390ce"/>
      <path id="Path_3116" data-name="Path 3116" d="M545.74,216.371h9.219V237h24.219V216.371H588.4v51.8h-9.219V245.346H554.959v22.829H545.74Z" transform="translate(-355.715 -215.048)" fill="#0390ce"/>
      <path id="Path_3117" data-name="Path 3117" d="M677.273,223.865c-2.049-3.293-5.707-4.756-9.439-4.756-5.414,0-11.049,2.561-11.049,8.707,0,4.756,2.635,6.878,10.9,9.512,8.049,2.561,15.512,5.2,15.512,15.366,0,10.317-8.853,15.146-18.219,15.146-6,0-12.439-1.976-15.951-7.17l5.268-4.317c2.195,3.8,6.585,5.78,11.048,5.78,5.268,0,11.268-3.073,11.268-9,0-6.366-4.317-7.463-13.536-10.536-7.317-2.415-12.878-5.634-12.878-14.268,0-9.951,8.561-14.927,17.634-14.927,5.78,0,10.682,1.61,14.487,6.073Z" transform="translate(-413.2 -213.395)" fill="#1c3a6b"/>
    </g>
    <g id="Group_2243" data-name="Group 2243" transform="translate(117.295 278.808)">
      <path id="Path_3118" data-name="Path 3118" d="M122.277,363.934a1.87,1.87,0,0,0-1.641-.827c-.941,0-1.922.445-1.922,1.515,0,.827.458,1.2,1.9,1.653,1.4.446,2.7.9,2.7,2.672,0,1.794-1.54,2.634-3.169,2.634a3.266,3.266,0,0,1-2.774-1.247l.916-.751a2.182,2.182,0,0,0,1.921,1.005c.916,0,1.96-.534,1.96-1.565,0-1.107-.751-1.3-2.355-1.832-1.272-.42-2.239-.98-2.239-2.482,0-1.73,1.489-2.6,3.067-2.6a3.091,3.091,0,0,1,2.519,1.056Z" transform="translate(-117.366 -361.58)" fill="#1c3a6b"/>
      <path id="Path_3119" data-name="Path 3119" d="M132.894,370.089a3.317,3.317,0,0,1,2.367-.916c1.756,0,2.494.84,2.494,2.519v2.557a6.6,6.6,0,0,0,.089,1.031h-.954a4.269,4.269,0,0,1-.063-.89H136.8a2.251,2.251,0,0,1-1.959,1.043c-1.209,0-2.214-.611-2.214-1.768,0-1.973,2.29-2.087,3.753-2.087h.382V371.4c0-.865-.547-1.31-1.476-1.31a2.642,2.642,0,0,0-1.769.649Zm2.876,2.329c-1.26,0-2.074.343-2.074,1.145,0,.751.56,1.031,1.31,1.031a1.7,1.7,0,0,0,1.756-1.794v-.382Z" transform="translate(-125.859 -365.508)" fill="#1c3a6b"/>
      <path id="Path_3120" data-name="Path 3120" d="M146.862,365.566h-1.3v-.839h1.3V363.39c0-1.451.509-2.481,2.112-2.481a1.824,1.824,0,0,1,.764.153l-.14.891a2.04,2.04,0,0,0-.675-.128c-1.031,0-1.069.751-1.069,1.781v1.12H149.3v.839h-1.451v5.115h-.992Z" transform="translate(-133.059 -360.909)" fill="#1c3a6b"/>
      <path id="Path_3121" data-name="Path 3121" d="M160.319,374.2a3.055,3.055,0,0,1-2.647,1.234,2.949,2.949,0,0,1-3.015-3.13,2.981,2.981,0,0,1,3.054-3.13c1.68,0,2.825,1.145,2.825,3.118v.318h-4.81a1.992,1.992,0,0,0,1.946,1.909,2.218,2.218,0,0,0,1.9-.9Zm-.852-2.431a1.656,1.656,0,0,0-1.795-1.679,1.843,1.843,0,0,0-1.946,1.679Z" transform="translate(-138.12 -365.508)" fill="#1c3a6b"/>
      <path id="Path_3122" data-name="Path 3122" d="M177.864,362.63h5.662v.993h-4.593v2.824h4.288v.993h-4.288v3.206h4.822v.992h-5.891Z" transform="translate(-151.035 -361.867)" fill="#1c3a6b"/>
      <path id="Path_3123" data-name="Path 3123" d="M193.045,365.566h-1.3v-.839h1.3V363.39c0-1.451.509-2.481,2.112-2.481a1.82,1.82,0,0,1,.763.153l-.14.891a2.038,2.038,0,0,0-.674-.128c-1.031,0-1.069.751-1.069,1.781v1.12h1.451v.839h-1.451v5.115h-.992Z" transform="translate(-158.762 -360.909)" fill="#1c3a6b"/>
      <path id="Path_3124" data-name="Path 3124" d="M200.623,365.566h-1.3v-.839h1.3V363.39c0-1.451.509-2.481,2.113-2.481a1.822,1.822,0,0,1,.763.153l-.14.891a2.034,2.034,0,0,0-.674-.128c-1.03,0-1.068.751-1.068,1.781v1.12h1.45v.839h-1.45v5.115h-.993Z" transform="translate(-162.979 -360.909)" fill="#1c3a6b"/>
      <path id="Path_3125" data-name="Path 3125" d="M214.08,374.2a3.054,3.054,0,0,1-2.647,1.234,2.95,2.95,0,0,1-3.016-3.13,2.981,2.981,0,0,1,3.054-3.13c1.679,0,2.824,1.145,2.824,3.118v.318h-4.809a1.991,1.991,0,0,0,1.946,1.909,2.219,2.219,0,0,0,1.9-.9Zm-.852-2.431a1.655,1.655,0,0,0-1.794-1.679,1.842,1.842,0,0,0-1.946,1.679Z" transform="translate(-168.04 -365.508)" fill="#1c3a6b"/>
      <path id="Path_3126" data-name="Path 3126" d="M228,370.814a1.83,1.83,0,0,0-1.5-.726,1.986,1.986,0,0,0-2.01,2.214,2.059,2.059,0,0,0,2.01,2.215,1.739,1.739,0,0,0,1.514-.738l.738.7a2.9,2.9,0,0,1-2.252.953,3.13,3.13,0,0,1,0-6.26,3.026,3.026,0,0,1,2.291.942Z" transform="translate(-176.389 -365.508)" fill="#1c3a6b"/>
      <path id="Path_3127" data-name="Path 3127" d="M239.343,368.232h-1.756v2.977c0,.764.013,1.375.891,1.375a1.936,1.936,0,0,0,.878-.2l.038.9a3.013,3.013,0,0,1-1.158.216c-1.412,0-1.642-.764-1.642-2v-3.271h-1.3v-.839h1.3V365.7h.992v1.693h1.756Z" transform="translate(-182.998 -363.575)" fill="#1c3a6b"/>
      <path id="Path_3128" data-name="Path 3128" d="M246.636,362.63a.725.725,0,0,1,.725.726.725.725,0,0,1-1.451,0A.725.725,0,0,1,246.636,362.63Zm-.5,3.055h.993v5.954h-.993Z" transform="translate(-188.905 -361.867)" fill="#1c3a6b"/>
      <path id="Path_3129" data-name="Path 3129" d="M253.852,375.472h-1.094l-2.431-5.954h1.158l1.858,4.67h.026l1.769-4.67h1.069Z" transform="translate(-191.364 -365.7)" fill="#1c3a6b"/>
      <path id="Path_3130" data-name="Path 3130" d="M269.93,374.2a3.054,3.054,0,0,1-2.647,1.234,2.95,2.95,0,0,1-3.016-3.13,2.981,2.981,0,0,1,3.054-3.13c1.679,0,2.824,1.145,2.824,3.118v.318h-4.81a1.992,1.992,0,0,0,1.947,1.909,2.219,2.219,0,0,0,1.9-.9Zm-.852-2.431a1.655,1.655,0,0,0-1.794-1.679,1.843,1.843,0,0,0-1.947,1.679Z" transform="translate(-199.122 -365.508)" fill="#1c3a6b"/>
      <path id="Path_3131" data-name="Path 3131" d="M296.16,371.352h-5.23a4.619,4.619,0,1,1,4.632-4.619,4.013,4.013,0,0,1-2.188,3.677v.026h2.787Zm-5.23-.992a3.629,3.629,0,1,0-3.487-3.626A3.5,3.5,0,0,0,290.931,370.359Z" transform="translate(-211.383 -361.58)" fill="#1c3a6b"/>
      <path id="Path_3132" data-name="Path 3132" d="M315.242,374.06c0,.546.051,1.018.051,1.412h-.941c0-.318-.025-.649-.025-.98H314.3a2.161,2.161,0,0,1-1.985,1.132,2.129,2.129,0,0,1-2.265-2.43v-3.677h.992v3.576c0,.992.433,1.616,1.361,1.616,1.285,0,1.845-.929,1.845-2.29v-2.9h.992Z" transform="translate(-224.602 -365.7)" fill="#1c3a6b"/>
      <path id="Path_3133" data-name="Path 3133" d="M324.545,370.089a3.317,3.317,0,0,1,2.367-.916c1.756,0,2.494.84,2.494,2.519v2.557a6.6,6.6,0,0,0,.089,1.031h-.954a4.268,4.268,0,0,1-.063-.89h-.026a2.25,2.25,0,0,1-1.96,1.043c-1.209,0-2.214-.611-2.214-1.768,0-1.973,2.29-2.087,3.754-2.087h.382V371.4c0-.865-.547-1.31-1.476-1.31a2.643,2.643,0,0,0-1.769.649Zm2.876,2.329c-1.26,0-2.074.343-2.074,1.145,0,.751.56,1.031,1.31,1.031a1.7,1.7,0,0,0,1.756-1.794v-.382Z" transform="translate(-232.52 -365.508)" fill="#1c3a6b"/>
      <path id="Path_3134" data-name="Path 3134" d="M339.2,361.253h.993v9.62H339.2Z" transform="translate(-240.822 -361.1)" fill="#1c3a6b"/>
      <path id="Path_3135" data-name="Path 3135" d="M345.342,362.63a.725.725,0,0,1,.725.726.725.725,0,0,1-1.451,0A.725.725,0,0,1,345.342,362.63Zm-.5,3.055h.993v5.954h-.993Z" transform="translate(-243.839 -361.867)" fill="#1c3a6b"/>
      <path id="Path_3136" data-name="Path 3136" d="M353.137,368.232h-1.756v2.977c0,.764.013,1.375.89,1.375a1.934,1.934,0,0,0,.878-.2l.039.9a3.013,3.013,0,0,1-1.158.216c-1.412,0-1.641-.764-1.641-2v-3.271h-1.3v-.839h1.3V365.7h.992v1.693h1.756Z" transform="translate(-246.329 -363.575)" fill="#1c3a6b"/>
      <path id="Path_3137" data-name="Path 3137" d="M361.187,376.834c-.395,1-.789,1.692-1.985,1.692a2.167,2.167,0,0,1-.891-.153l.127-.865a1.928,1.928,0,0,0,.7.1c.648,0,.89-.395,1.107-.98l.407-1.12-2.468-5.993h1.158l1.845,4.67h.025l1.769-4.67h1.082Z" transform="translate(-251.39 -365.7)" fill="#1c3a6b"/>
      <path id="Path_3138" data-name="Path 3138" d="M383.741,362.113a4.475,4.475,0,0,1,4.8,4.721,4.591,4.591,0,0,1-4.8,4.746,4.734,4.734,0,1,1,0-9.467Zm.013,8.017a3.1,3.1,0,0,0,3.1-3.346,3.1,3.1,0,1,0-6.2,0A3.093,3.093,0,0,0,383.754,370.129Z" transform="translate(-262.965 -361.578)" fill="#0390ce"/>
      <path id="Path_3139" data-name="Path 3139" d="M406.495,370.813a1.69,1.69,0,0,0-1.158-.611,1.833,1.833,0,0,0,0,3.665,1.465,1.465,0,0,0,1.183-.573l1.018,1.094a3.456,3.456,0,0,1-2.2.853,3.208,3.208,0,1,1,0-6.413,2.984,2.984,0,0,1,2.214.929Z" transform="translate(-275.784 -365.316)" fill="#0390ce"/>
      <path id="Path_3140" data-name="Path 3140" d="M419.375,370.813a1.691,1.691,0,0,0-1.158-.611,1.833,1.833,0,0,0,0,3.665,1.465,1.465,0,0,0,1.183-.573l1.018,1.094a3.456,3.456,0,0,1-2.2.853,3.208,3.208,0,1,1,0-6.413,2.982,2.982,0,0,1,2.214.929Z" transform="translate(-282.952 -365.316)" fill="#0390ce"/>
      <path id="Path_3141" data-name="Path 3141" d="M434.038,375.28h-1.45v-.98h-.026a1.915,1.915,0,0,1-1.871,1.132,2.127,2.127,0,0,1-2.226-2.4v-3.855h1.526v3.092c0,.674.051,1.794,1.12,1.794a1.37,1.37,0,0,0,1.4-1.553v-3.334h1.527Z" transform="translate(-290.504 -365.508)" fill="#0390ce"/>
      <path id="Path_3142" data-name="Path 3142" d="M443.983,368.981h1.451v.916h.025a2.355,2.355,0,0,1,2.1-1.069,2.964,2.964,0,0,1,3.015,3.207,3,3,0,0,1-2.953,3.206,2.511,2.511,0,0,1-2.074-.929h-.038v3.678h-1.527Zm3.27,1.221a1.833,1.833,0,1,0,1.794,1.832A1.768,1.768,0,0,0,447.253,370.2Z" transform="translate(-299.14 -365.316)" fill="#0390ce"/>
      <path id="Path_3143" data-name="Path 3143" d="M464.413,374.249h-.039a2.194,2.194,0,0,1-1.96.992,1.987,1.987,0,0,1-2.227-1.832c0-1.985,2.317-2.125,3.843-2.125h.382v-.165c0-.751-.585-1.146-1.4-1.146a2.4,2.4,0,0,0-1.629.637l-.8-.8a3.582,3.582,0,0,1,2.6-.98c2.608,0,2.608,1.883,2.608,2.748v3.512h-1.374Zm-.089-1.9h-.318c-.84,0-2.29.063-2.29.941,0,.56.573.8,1.069.8,1.043,0,1.539-.547,1.539-1.4Z" transform="translate(-308.159 -365.316)" fill="#0390ce"/>
      <path id="Path_3144" data-name="Path 3144" d="M473.958,368.251v-1.3h1.259v-1.769h1.527v1.769h1.68v1.3h-1.68v2.672c0,.611.178.993.853.993a1.585,1.585,0,0,0,.827-.191v1.285a3.217,3.217,0,0,1-1.209.2c-1.616,0-2-.725-2-2.163v-2.8Z" transform="translate(-315.822 -363.289)" fill="#0390ce"/>
      <path id="Path_3145" data-name="Path 3145" d="M486.315,362.43a.917.917,0,1,1-.967.916A.94.94,0,0,1,486.315,362.43Zm-.751,2.99h1.527v6.107h-1.527Z" transform="translate(-322.161 -361.755)" fill="#0390ce"/>
      <path id="Path_3146" data-name="Path 3146" d="M494.92,368.828a3.208,3.208,0,1,1-3.32,3.207A3.167,3.167,0,0,1,494.92,368.828Zm0,5.039a1.833,1.833,0,1,0-1.794-1.832A1.769,1.769,0,0,0,494.92,373.867Z" transform="translate(-325.641 -365.316)" fill="#0390ce"/>
      <path id="Path_3147" data-name="Path 3147" d="M508.84,368.981h1.451v.98h.026a1.914,1.914,0,0,1,1.87-1.133,2.128,2.128,0,0,1,2.227,2.4v3.855h-1.526V372c0-.674-.051-1.794-1.12-1.794a1.37,1.37,0,0,0-1.4,1.553v3.334H508.84Z" transform="translate(-335.235 -365.316)" fill="#0390ce"/>
      <path id="Path_3148" data-name="Path 3148" d="M527.664,374.249h-.037a2.2,2.2,0,0,1-1.96.992,1.987,1.987,0,0,1-2.227-1.832c0-1.985,2.316-2.125,3.844-2.125h.381v-.165c0-.751-.585-1.146-1.4-1.146a2.4,2.4,0,0,0-1.629.637l-.8-.8a3.58,3.58,0,0,1,2.6-.98c2.608,0,2.608,1.883,2.608,2.748v3.512h-1.374Zm-.089-1.9h-.318c-.84,0-2.29.063-2.29.941,0,.56.573.8,1.068.8,1.043,0,1.539-.547,1.539-1.4Z" transform="translate(-343.36 -365.316)" fill="#0390ce"/>
      <path id="Path_3149" data-name="Path 3149" d="M538.873,361.253H540.4v9.62h-1.527Z" transform="translate(-351.95 -361.1)" fill="#0390ce"/>
      <path id="Path_3150" data-name="Path 3150" d="M553.188,362.63h1.6v3.589H559V362.63h1.6v9.009H559V367.67h-4.212v3.969h-1.6Z" transform="translate(-359.917 -361.867)" fill="#0390ce"/>
      <path id="Path_3151" data-name="Path 3151" d="M574.019,372.569a1.582,1.582,0,0,0,1.641,1.451,2.008,2.008,0,0,0,1.642-.828l1.094.828a3.266,3.266,0,1,1-2.584-5.192c1.706,0,2.863,1.2,2.863,3.321v.42Zm3.131-1.145a1.405,1.405,0,0,0-1.552-1.451,1.52,1.52,0,0,0-1.578,1.451Z" transform="translate(-370.66 -365.316)" fill="#0390ce"/>
      <path id="Path_3152" data-name="Path 3152" d="M592.007,374.249h-.039a2.2,2.2,0,0,1-1.959.992,1.986,1.986,0,0,1-2.227-1.832c0-1.985,2.315-2.125,3.843-2.125h.382v-.165c0-.751-.586-1.146-1.4-1.146a2.4,2.4,0,0,0-1.629.637l-.8-.8a3.579,3.579,0,0,1,2.6-.98c2.609,0,2.609,1.883,2.609,2.748v3.512h-1.374Zm-.089-1.9H591.6c-.84,0-2.291.063-2.291.941,0,.56.573.8,1.07.8,1.043,0,1.54-.547,1.54-1.4Z" transform="translate(-379.17 -365.316)" fill="#0390ce"/>
      <path id="Path_3153" data-name="Path 3153" d="M603.214,361.253h1.527v9.62h-1.527Z" transform="translate(-387.758 -361.1)" fill="#0390ce"/>
      <path id="Path_3154" data-name="Path 3154" d="M608.062,368.251v-1.3h1.259v-1.769h1.527v1.769h1.68v1.3h-1.68v2.672c0,.611.178.993.853.993a1.588,1.588,0,0,0,.827-.191v1.285a3.219,3.219,0,0,1-1.209.2c-1.616,0-2-.725-2-2.163v-2.8Z" transform="translate(-390.456 -363.289)" fill="#0390ce"/>
      <path id="Path_3155" data-name="Path 3155" d="M621.408,365.618h.026a1.914,1.914,0,0,1,1.794-1.006,2.128,2.128,0,0,1,2.227,2.4v3.855h-1.528V367.78c0-.674-.05-1.794-1.119-1.794a1.37,1.37,0,0,0-1.4,1.553v3.334h-1.526v-9.62h1.526Z" transform="translate(-397.034 -361.1)" fill="#0390ce"/>
      <path id="Path_3156" data-name="Path 3156" d="M646.478,363.934a1.874,1.874,0,0,0-1.642-.827c-.941,0-1.922.445-1.922,1.515,0,.827.458,1.2,1.9,1.653,1.4.446,2.7.9,2.7,2.672,0,1.794-1.54,2.634-3.169,2.634a3.267,3.267,0,0,1-2.774-1.247l.917-.751a2.182,2.182,0,0,0,1.921,1.005c.916,0,1.96-.534,1.96-1.565,0-1.107-.751-1.3-2.354-1.832-1.273-.42-2.24-.98-2.24-2.482,0-1.73,1.489-2.6,3.067-2.6a3.093,3.093,0,0,1,2.52,1.056Z" transform="translate(-409.102 -361.58)" fill="#1c3a6b"/>
      <path id="Path_3157" data-name="Path 3157" d="M662.489,374.2a3.055,3.055,0,0,1-2.647,1.234,2.949,2.949,0,0,1-3.016-3.13,2.981,2.981,0,0,1,3.054-3.13c1.679,0,2.824,1.145,2.824,3.118v.318H657.9a1.991,1.991,0,0,0,1.946,1.909,2.217,2.217,0,0,0,1.9-.9Zm-.852-2.431a1.656,1.656,0,0,0-1.794-1.679,1.842,1.842,0,0,0-1.946,1.679Z" transform="translate(-417.596 -365.508)" fill="#1c3a6b"/>
      <path id="Path_3158" data-name="Path 3158" d="M672.54,370.738c0-.547-.051-1.018-.051-1.412h.941c0,.318.026.648.026.98h.025a2.164,2.164,0,0,1,1.985-1.133,1.168,1.168,0,0,1,.407.063l-.063,1.005a1.869,1.869,0,0,0-.534-.077c-1.209,0-1.743.852-1.743,2.214v2.9h-.992Z" transform="translate(-426.312 -365.508)" fill="#1c3a6b"/>
      <path id="Path_3159" data-name="Path 3159" d="M683.443,375.472h-1.095l-2.429-5.954h1.157l1.859,4.67h.025l1.769-4.67H685.8Z" transform="translate(-430.447 -365.7)" fill="#1c3a6b"/>
      <path id="Path_3160" data-name="Path 3160" d="M695.043,362.63a.725.725,0,0,1,.725.726.726.726,0,0,1-1.451,0A.726.726,0,0,1,695.043,362.63Zm-.5,3.055h.992v5.954h-.992Z" transform="translate(-438.46 -361.867)" fill="#1c3a6b"/>
      <path id="Path_3161" data-name="Path 3161" d="M704.379,370.814a1.83,1.83,0,0,0-1.5-.726,1.986,1.986,0,0,0-2.01,2.214,2.059,2.059,0,0,0,2.01,2.215,1.739,1.739,0,0,0,1.514-.738l.738.7a2.9,2.9,0,0,1-2.252.953,3.13,3.13,0,0,1,0-6.26,3.023,3.023,0,0,1,2.29.942Z" transform="translate(-441.51 -365.508)" fill="#1c3a6b"/>
      <path id="Path_3162" data-name="Path 3162" d="M718.34,374.2a3.055,3.055,0,0,1-2.647,1.234,2.95,2.95,0,0,1-3.016-3.13,2.981,2.981,0,0,1,3.054-3.13c1.68,0,2.825,1.145,2.825,3.118v.318h-4.81a1.991,1.991,0,0,0,1.946,1.909,2.219,2.219,0,0,0,1.9-.9Zm-.853-2.431a1.655,1.655,0,0,0-1.793-1.679,1.842,1.842,0,0,0-1.946,1.679Z" transform="translate(-448.679 -365.508)" fill="#1c3a6b"/>
    </g>
  </g>
</svg>
